<svg xmlns="http://www.w3.org/2000/svg" viewBox="0 0 527.15 336.12"><defs><style>.cls-1{fill:#d6792a;}</style></defs><g id="Layer_2" data-name="Layer 2"><g id="Layer_1-2" data-name="Layer 1"><path class="cls-1" d="M525.59,91.24c0-1.61-.68-3.22-2.29-3.67-7.57-1.84-39.64,1.83-47.43,2.75h-.05a3.12,3.12,0,0,0-2.75,4,99,99,0,0,1,2.62,12.36c3.79,18.74,7.77,38.71,11.29,58.72l0,.19c1.8,10.91,3.83,20,6,29.58,2.37,10.57,4.83,21.49,6.84,34.74.32,2,.64,4.06.94,6.09.74,4.93,1.45,9.58,2.35,14.11.35,1.53,1,4.37,1.74,8,.33,1.51.87,4.28,1.24,6,3.82,0,7.72-3.67,11.07-6.4,2-1.6,3.66-3,3.44-5.5C520.38,197,522.84,146.45,525.59,91.24Z"/><path class="cls-1" d="M176.09,88.83c-3.43-5.49-8.73-9.81-13.33-14.4a3.42,3.42,0,0,0-2.72-1,14,14,0,0,0-4.23,2.3c-7,5.35-38.69,34.8-44.58,41.22,3.1-11,6.36-22.06,9.94-33.06.4-1.11,1.9-5.25,1.78-6.24a3.43,3.43,0,0,0-1.69-2.08c-1.66-.62-3.49-.43-5.23-.73-2.86-.37-19.53-1.8-22.38-2.18a4.64,4.64,0,0,0-2.64.13c-1.61.69-2.29,4.73-2.78,6.32-9.85,37.32-19.73,74.79-29.1,112.14-.68,2.56,2.88,2.67,5.29,2.85,4.14.48,21.32,2.59,25.44,1.6,1.2-.24,1.88-2,2.15-3.27.84-4.84,7.11-32.78,8.27-37.59,8.74,12.91,15.36,27.45,23,41.09,1,1.55,5.27,9.23,6.48,10.45a1.52,1.52,0,0,0,1,.58,8.55,8.55,0,0,0,3-1.25c3.49-1.85,22.51-10.22,25.77-12.58a2.8,2.8,0,0,0,1.4-2c-.21-1.33-1.18-2.22-1.78-3.25-4.45-6.05-27.56-42.59-31.46-48.92-.51-.69-1.28-1.73-.67-2.34,16.24-13.8,32.09-28.11,49.1-40.88C178.47,93.91,177.42,91.05,176.09,88.83Z"/><path class="cls-1" d="M274.79,87.79c-2.34-2.14-12.43-2.25-15.71-2.16-13.37,0-26.8-.57-40.17-.6-6.52,0-13.18-.17-19.86.63a63.9,63.9,0,0,0-9.27,1.42c-1,.26-1.36,1.86-1.59,3-1.18,11.18-10,79.11-11.55,90.43-.58,3.55-3.11,19.69-2.52,23.16.32,1.66,3.07,1.71,4.87,1.68,8.46.14,55.61,4,64,4.67a39.06,39.06,0,0,0,4.34.33,4.14,4.14,0,0,0,3.12-.91c1.39-1.2,2.43-6.19,2.76-7.8.69-2.56,3.77-15.89,4-18.64.15-3.09-5-2.83-8.2-2.91-4.82-.37-34.17-1.27-39-1.64-.32,0-.64-.05-.57-.36.65-7.14.81-14.15,2.11-21.24,4.4,0,29.36,1.56,33.7,1.89a6.22,6.22,0,0,0,2.48-.14,3.76,3.76,0,0,0,2-2.63c1.16-5.62,2-11.28,3.62-16.71.76-2.06,2.19-5.05.1-5.22-4.78-.52-29-.72-33.87-.26-1.64,0-3.19.41-4.79.28,1.14-7.09,1.81-14.24,2.79-21.34,5.24-.1,36.36,1.59,41.7,1.84,2.61,0,9.06,1.18,11-1,2.3-2.44,3.14-12,3.65-15.24.37-2.59,1.74-5.26,1.79-7.87A4.55,4.55,0,0,0,274.79,87.79Z"/><path class="cls-1" d="M367.69,127.31c-1.74-5-2.89-10.51-4.62-15.54-.47-1.66-2.08-6.53-3.7-7.31-9.32-4.61-19.74-7.86-30.14-10.44a298.27,298.27,0,0,0-39.68-6.91,2,2,0,0,0-2.29,1.62c-3,15.29-16.52,103.44-18.73,118.8,0,.82-.2,1.78.37,2.15.55.53,3.08.89,3.88.94,5.72.77,36.92,1.32,42.78,1.45,2.95-.12,14-.1,16.72-1.19,1.57-.54,5-5.18,6.24-6.55,4.16-5.08,8.5-10.31,12.66-15.38.7-1.1,4-5.09,4.53-6.19.76-2.07,3.15-12.83,3.58-14.92,1.1-4.5,7-31.33,8.24-35.8A15.16,15.16,0,0,0,367.69,127.31ZM332,161.85c-.77,2.89-.91,6-2.42,8.48-1,1.88-7.31,7.78-8.89,9.13-.62.6-2.68.29-3.32.23-5.37-.08-10.63-.63-16-.55,2.93-19.71,6.35-39.37,8.62-59,2.89.21,17.84,3.63,20.64,4.34,1.54,3.54,2.74,7.23,4.09,10.92a25.8,25.8,0,0,1,.94,2.52A151,151,0,0,1,332,161.85Z"/><path class="cls-1" d="M96.66,313.74c-.56-2.67-1.56-17.86-1.82-20.66-.17-3.2-.06-6.39-.07-9.72.08-11.08-1.26-22-1.34-33-.2-9-.68-18.08-1.2-27,0-1.38-.19-6.39-1.09-7.43a2.23,2.23,0,0,0-1.91-.84c-.92-.21-6.93,0-7.88,0-3.6,0-7.15-.26-10.75-.26-6.22,0-12.53.31-18.72.11a4.93,4.93,0,0,0-2.8.76A5,5,0,0,0,47.92,218a35,35,0,0,1-2.83,7c-1.8,3.32-12.52,22.35-14.46,25.67-4,6.63-7.39,13.59-10.87,20.4-2,4.15-14,26.26-16.52,30.24a21.87,21.87,0,0,0-3.18,6,3.83,3.83,0,0,0,.88,3.11,10.3,10.3,0,0,0,2.88,1.47c2.49.74,16,3.85,18.64,4.32a11.14,11.14,0,0,0,4.8.22,5.21,5.21,0,0,0,2.42-1.61,20.84,20.84,0,0,0,3-5.88c2.64-6.74,4.8-13.78,7.58-20.51,3,.23,21.33,1.33,24.33,1.56-.28,4-2.5,24.09-2.17,27.86.07,1,1.25,1.34,2.4,1.14,2-.26,12.07-.74,14.1-.59,4.67.21,9.28.69,14.06.37,1.83-.15,4.16-.66,4.09-2.33A7.79,7.79,0,0,0,96.66,313.74ZM67.08,255.89c-.5,5.79-.61,11.61-1.14,17.53-6-.18-12.16-.78-18.16-1.24,3.1-7,6.07-14,8.8-21.11.33-.94,1.23-3.93,2-4.42a8.45,8.45,0,0,1,3.88-.67,33,33,0,0,0,6.24-.65A91.16,91.16,0,0,0,67.08,255.89Z"/><path class="cls-1" d="M174.78,221.44a3.43,3.43,0,0,0-2-.43c-20.61.53-41.16.09-61.69.9-1.12.05-2.52.77-2.74,1.87-.79,3.13-2.84,17.68-2.78,20.73.08,1,1.34.93,2.32.87,2.24-.11,15.45-.36,17.69-.47-2,9.56-16.8,63.09-19.58,72.46-.25,1.22-.2,2.34.89,2.42,2.45.19,17.92,1.76,20.51,2,1.33.23,7,.81,8.48.5a1.84,1.84,0,0,0,1.29-.88,3.43,3.43,0,0,0,.48-1.63c4.55-24.62,8.82-49.26,14.18-73.83,2.1-.11,14.37.13,16.45.14.85-.07,2.13-.26,2.44-1.07,1-2.83,3.56-17.2,4.13-19.93C175.09,224,175.52,221.92,174.78,221.44Z"/><path class="cls-1" d="M243.55,324.84c-.55-2.67-1.55-17.88-1.81-20.66-.16-3.21-.06-6.39-.06-9.72.07-11.08-1.27-22-1.35-33-.21-9-.69-18.08-1.2-27,0-1.38-.19-6.4-1.09-7.43-.29-.58-1.09-.78-1.9-.84-.93-.21-6.94,0-7.89-.05-3.61,0-7.15-.25-10.75-.25-6.23,0-12.53.31-18.73.11a3.38,3.38,0,0,0-4,3,34.72,34.72,0,0,1-2.84,7c-1.79,3.33-12.52,22.35-14.45,25.67-4,6.64-7.38,13.6-10.88,20.41-2,4.14-14,26.26-16.51,30.23a22.07,22.07,0,0,0-3.18,6,3.79,3.79,0,0,0,.88,3.11,10.44,10.44,0,0,0,2.88,1.47c2.48.74,16,3.83,18.64,4.32a11.29,11.29,0,0,0,4.8.22,5.15,5.15,0,0,0,2.42-1.62,21.22,21.22,0,0,0,3-5.87c2.64-6.74,4.79-13.78,7.56-20.51,3,.23,21.34,1.33,24.34,1.56-.28,4-2.5,24.09-2.17,27.85.08,1,1.25,1.35,2.39,1.15,2-.27,12.07-.75,14.12-.59,4.66.21,9.28.69,14,.37,1.83-.15,4.15-.66,4.08-2.33A7.55,7.55,0,0,0,243.55,324.84ZM214,267c-.52,5.8-.61,11.61-1.14,17.53-6.06-.17-12.17-.78-18.17-1.23,3.1-7,6.08-14,8.8-21.11.34-.94,1.23-3.93,2-4.42a8.38,8.38,0,0,1,3.88-.68,32,32,0,0,0,6.22-.64A90.87,90.87,0,0,0,214,267Z"/><path class="cls-1" d="M341.82,230.32c-1.41-1.22-3.66-1.11-5.59-1.11-21.2.06-42.58.24-63.93,1a4.94,4.94,0,0,0-2.76.62,2.37,2.37,0,0,0-.85,1.47,78.81,78.81,0,0,0-1.78,7.9c-5.51,29.27-9.79,58.62-14,87.85-.26,1.23-.45,2.88.66,2.82.28,0,.61-.23.88-.21,2.32.18,16.25,1.09,18.44,1.25s5.73.44,5.39-1.94c-.17-2.51,2.29-14.4,2.83-17,1.39-7.39,2.78-14.77,3.9-22.17,4.28,0,31,.95,35.25,1,1.39,0,7.06.68,8.54.24,1.94-.69,3.36-4.19,3.78-6.24,1.58-10.28,3.29-20.56,5.44-30.94,1.47-7.09,3-14.33,4.44-21.44A3.46,3.46,0,0,0,341.82,230.32ZM312.26,268c-2.9-.08-19.35-.22-22.28-.16,1-6,2.09-12.05,3.2-18.07,3,.1,19.21-.49,22.05-.13C314.88,252,312.58,265.84,312.26,268Z"/><path class="cls-1" d="M493.54,269.43c-1.58-7.21-2.92-13.5-3.45-15.83-1.39-6.95-2.31-13.91-3.46-21.17-3.69-24.2-8.87-40.24-12.8-64.13-3.46-19.68-7.38-39.34-11.29-58.71-.47-3-2.54-13.91-4.39-16-.69-1.21-2.09-1.51-3.47-1.51l-.07,0h0l-8.08.71h-.14c-2.22.28-4.19.51-4.83.51-2.08.22-4.16.35-6.24.46h-.05l-23.5,2.06c-6.4.79-12.78,1.63-19.19,2l-.3,0c-1.56.29-3.11.62-4.24,2.09-.9,1.2-.91,3.27-1.13,5.07a.71.71,0,0,0,0,.14q-.15,3.18-.57,6.23c-.42,3.2-3.71,20.17-4.49,23.87-1.92,8.48-13.65,57.31-15.81,65.9-4.55,17.29-7.89,34.62-11.5,51.76-1.39,7.51-8.66,39.59-13.6,60.42,0,0,0,0,0,.05-.19.72-.34,1.32-.48,1.82-1.43,4.91-3.11,10.25-3.35,15.2a6.74,6.74,0,0,0,2.05,5,2.41,2.41,0,0,0,1.12.55,14.87,14.87,0,0,0,5,0c4.54-1,29-8,33.76-9.69a33.38,33.38,0,0,0,6-2.51,13.51,13.51,0,0,0,2.4-1.78,14.13,14.13,0,0,0,2.65-3.61,2.49,2.49,0,0,0,.26-.84l.18-1.17q.6-4.5,1.1-9c1.49-12.75,2.62-25.57,4.46-38.36A2.52,2.52,0,0,1,397.4,267h0c2.85-1.37,10.15-7.4,16.81-12.08,7.51-5.26,15.51-10.76,20.31-13.75a2.53,2.53,0,0,1,3.87,1.92c1.28,13.39,4.13,47.78,5.83,54.24.48,1.88,2.64,1.47,4.55,0,3.35-2.51,20.6-13.42,24.19-15.13,6.45-3.3,12.91-6.23,19.36-10A2.55,2.55,0,0,0,493.54,269.43ZM433,205.33c-5.87,3.38-16.64,11.34-22.95,15.47a2.55,2.55,0,0,1-3.91-2.53c2.44-15.83,4.68-38.35,6.55-52.76.22-2.12.68-8.77,1.85-10,.92-1.22,4.61-2.12,6.22-2.12a45,45,0,0,0,9.3-2.06,6.36,6.36,0,0,0,.85-.36c0,7.27,1.22,24.89,1.8,31.91,1.08,9.1.78,11.41,1.54,20Z"/><path class="cls-1" d="M526.49,60.09l-10.82,14.7a3.36,3.36,0,0,1-2.38,1.36l-37.06,3.62-.79,0a3.32,3.32,0,0,1-2.37-1.48L463.13,63a3.37,3.37,0,0,1,.39-4.17l18.32-19.08a3.37,3.37,0,0,0,.68-3.59L473.6,14a3.36,3.36,0,0,1,4.83-4.17l38.08,22.21a3.44,3.44,0,0,1,1.45,1.7l9,23.12A3.33,3.33,0,0,1,526.49,60.09Z"/><path class="cls-1" d="M190,34.16l4.94,14.66a8.28,8.28,0,0,1-9.13,10.83L105.76,46a8.88,8.88,0,0,1-6.88-11.5l3-9.16a8.85,8.85,0,0,1,9.46-6.06l71.72,9.29A8.27,8.27,0,0,1,190,34.16Z"/><path class="cls-1" d="M452.77,52.42A12.54,12.54,0,0,0,451.3,68l1.56,2.39,1.93,3a4,4,0,0,1-3.17,6.12l-2.83.11-26.36,1-1.85.07-49.27,1.79a5.88,5.88,0,0,1-2.3-.37L285.09,51.37a39,39,0,0,0-19.27-1.93l-48.64,8.72a8.3,8.3,0,0,1-9.28-5.41L201.71,37a8.29,8.29,0,0,1,5.93-10.82l60.88-14.38a39,39,0,0,1,20.25.69l94.85,31.3a6.07,6.07,0,0,0,4.36,0L454.3,17.05a6,6,0,0,1,7.83,3.34L467,32.46a6,6,0,0,1-1.24,6.43Z"/><path class="cls-1" d="M384.1,31.56l-41.16-11a3.84,3.84,0,0,1-1.68-6.48L354,1.72A6.1,6.1,0,0,1,359.29.09L428.71,11.9a2.93,2.93,0,0,1,.44,5.67L387.61,31.45A6.17,6.17,0,0,1,384.1,31.56Z"/></g></g></svg>